<svg xmlns="http://www.w3.org/2000/svg" viewBox="0 0 52.068 65.025"><defs><style>.a{fill:#fff;}</style></defs><g transform="translate(-48.65)"><g transform="translate(48.65)"><path class="a" d="M84.019,85.4H53.79a5.143,5.143,0,0,0-5.14,5.14v43.372a5.143,5.143,0,0,0,5.14,5.14H84.019a5.143,5.143,0,0,0,5.14-5.14V90.54A5.16,5.16,0,0,0,84.019,85.4Zm1.531,48.5a1.546,1.546,0,0,1-1.545,1.545H53.777a1.546,1.546,0,0,1-1.545-1.545V90.54A1.546,1.546,0,0,1,53.777,89H84.006A1.546,1.546,0,0,1,85.55,90.54Z" transform="translate(-48.65 -74.028)"/><path class="a" d="M170.819,0H140.59a5.143,5.143,0,0,0-5.14,5.14,1.8,1.8,0,1,0,3.6,0A1.546,1.546,0,0,1,140.59,3.6h30.229a1.546,1.546,0,0,1,1.545,1.545V48.513a1.546,1.546,0,0,1-1.545,1.545,1.8,1.8,0,1,0,0,3.6,5.143,5.143,0,0,0,5.14-5.14V5.14A5.143,5.143,0,0,0,170.819,0Z" transform="translate(-123.891)"/></g></g></svg>